# xmcd
#
# Track frame offsets: 
#        150
#        15805
#        29025
#        46340
#        61355
#        75445
#        88202
#        102660
#        117385
#        131912
#        146015
#        164750
#        182375
#        196280
#
# Disc length: 2858 seconds
#
# Revision: 2
# Processed by: cddbd v1.5.1PL0 Copyright (c) Steve Scherf et al.
# Submitted via: ExactAudioCopy v0.95b2
#
DISCID=c30b280e
DTITLE=Various Artist - Country Hot Hits #23
DYEAR=1900
DGENRE=
TTITLE0=Joe Diffie - Honky Tonk Attitude
TTITLE1=Randy Travis - An Old Pair Of Shoes
TTITLE2=Wynonna - Tell Me Why
TTITLE3=Dwight Yoakam - Ain't That Lonely Yet
TTITLE4=Collin Raye - Somebody Else's Moon
TTITLE5=Marty Stuart - Hey Baby
TTITLE6=Ricky Van Shelton - Just As I Am
TTITLE7=Diamond Rio - Oh Me, Oh My, Sweet Baby
TTITLE8=Suzy Bogguss - Heartache
TTITLE9=McBride and The Ride - Love On The Loose, Heart On The Run
TTITLE10=Vince Gill - No Future In The Past
TTITLE11=Billy Dean - I Wanna Take Care Of You
TTITLE12=Ricky Lynn Gregg - If I Had A Cheatin' Heart
TTITLE13=John Michael Montgomery - I Love The Way You Love Me
EXTD=
EXTT0=Diffie - Joe
EXTT1=Travis - Randy
EXTT2=Judd - Wynonna
EXTT3=Yoakam - Dwight
EXTT4=Raye - Collin
EXTT5=Stuart - Marty
EXTT6=VanShelton - Ricky
EXTT7=Diamond Rio
EXTT8=Bogguss - Suzy-
EXTT9=McBride and The Ride
EXTT10=Gill - Vince
EXTT11=Dean - Billy
EXTT12=Gregg - Ricky Lynn
EXTT13=Montgomery - John Michael
PLAYORDER=
